<?xml version="1.0" encoding="UTF-8"?>
<svg xmlns="http://www.w3.org/2000/svg" xmlns:xlink="http://www.w3.org/1999/xlink" width="38pt" height="38pt" viewBox="0 0 38 38" version="1.1">
<g id="surface1">
<path style=" stroke:none;fill-rule:evenodd;fill:rgb(100%,100%,100%);fill-opacity:1;" d="M 14.023438 6.207031 L 12.683594 10.695312 L 15.242188 10.695312 L 15.558594 9.515625 L 22.488281 9.515625 L 22.722656 10.617188 L 25.566406 10.617188 L 23.988281 6.246094 L 21.824219 6.246094 L 21.902344 7.074219 L 16.386719 7.074219 L 16.480469 6.210938 L 14.019531 6.210938 Z M 19.023438 0 C 28.460938 0.00390625 36.46875 6.917969 37.84375 16.25 C 39.21875 25.585938 33.550781 34.515625 24.515625 37.242188 L 24.515625 34.988281 L 24.640625 34.945312 L 24.640625 26.21875 L 13.734375 26.21875 L 13.734375 37.300781 C 4.632812 34.664062 -1.140625 25.734375 0.191406 16.355469 C 1.519531 6.972656 9.550781 0 19.027344 0 Z M 27.15625 33.816406 C 33.917969 30.101562 37.296875 22.269531 35.363281 14.796875 C 33.429688 7.328125 26.671875 2.121094 18.957031 2.152344 C 11.238281 2.183594 4.523438 7.445312 2.652344 14.933594 C 0.78125 22.421875 4.226562 30.222656 11.019531 33.886719 L 11.019531 23.804688 L 13.632812 23.804688 L 13.632812 19.03125 L 8.101562 19.03125 L 4.257812 15.183594 L 6.046875 13.394531 L 8.859375 16.164062 L 16.199219 16.164062 L 16.199219 23.605469 L 21.824219 23.605469 L 21.824219 16.316406 L 29.011719 16.316406 L 31.882812 13.449219 L 33.792969 15.210938 L 30.09375 18.90625 L 24.492188 18.90625 L 24.492188 23.605469 L 27.15625 23.605469 Z M 7.144531 12.441406 L 8.753906 10.53125 L 10.617188 12.492188 L 27.558594 12.492188 L 29.265625 10.628906 L 30.925781 12.238281 L 28.664062 14.753906 L 9.664062 14.753906 Z M 7.144531 12.441406 "/>
<path style=" stroke:none;fill-rule:nonzero;fill:rgb(100%,100%,100%);fill-opacity:1;" d="M 14.945312 37.195312 L 14.394531 37.195312 L 14.394531 33.691406 L 14.945312 33.691406 L 14.945312 35.195312 L 15.570312 35.195312 L 15.570312 33.691406 L 16.128906 33.691406 L 16.128906 37.195312 L 15.570312 37.195312 L 15.570312 35.695312 L 14.945312 35.695312 Z M 18.195312 37.195312 L 17.640625 37.195312 L 17.546875 36.558594 L 16.871094 36.558594 L 16.777344 37.195312 L 16.269531 37.195312 L 16.828125 33.691406 L 17.632812 33.691406 Z M 16.9375 36.082031 L 17.472656 36.082031 L 17.207031 34.3125 Z M 17.148438 32.9375 L 17.511719 33.523438 L 17.097656 33.523438 L 16.554688 32.9375 L 17.152344 32.9375 Z M 19.714844 34.660156 L 19.714844 37.191406 L 19.21875 37.191406 L 19.21875 33.691406 L 19.910156 33.691406 L 20.472656 35.789062 L 20.472656 33.691406 L 20.964844 33.691406 L 20.964844 37.195312 L 20.398438 37.195312 Z M 21.863281 36.386719 C 21.863281 36.621094 21.957031 36.734375 22.148438 36.734375 C 22.339844 36.734375 22.433594 36.621094 22.433594 36.386719 L 22.433594 34.5 C 22.433594 34.269531 22.339844 34.152344 22.148438 34.152344 C 21.960938 34.152344 21.863281 34.269531 21.863281 34.5 Z M 21.316406 34.53125 C 21.316406 33.945312 21.59375 33.652344 22.148438 33.652344 C 22.707031 33.652344 22.984375 33.945312 22.984375 34.53125 L 22.984375 36.351562 C 22.984375 36.941406 22.707031 37.234375 22.148438 37.234375 C 21.59375 37.234375 21.3125 36.941406 21.316406 36.351562 Z M 22.402344 37.457031 L 22.402344 37.964844 L 21.894531 37.964844 L 21.894531 37.457031 Z M 21.417969 33.523438 L 21.882812 32.9375 L 22.410156 32.9375 L 22.875 33.523438 L 22.378906 33.523438 L 22.144531 33.230469 L 21.914062 33.523438 Z M 23.339844 33.691406 L 23.890625 33.691406 L 23.890625 37.191406 L 23.339844 37.191406 Z M 23.339844 33.691406 "/>
</g>
</svg>
