<svg xmlns="http://www.w3.org/2000/svg" width="107.862" height="107.634" viewBox="0 0 107.862 107.634"><defs><style>.a,.b{fill:#0065b3;}.a{fill-rule:evenodd;}</style></defs><g transform="translate(-0.01)"><path class="a" d="M39.762,17.594l-3.8,12.73h7.258l.893-3.349H63.769l.67,3.126h8.04l-4.467-12.4H61.87l.223,2.344H46.46l.269-2.449-6.969-.007ZM53.94,0A53.938,53.938,0,0,1,69.51,105.577v-6.4c.117-.04.235-.083.352-.125V74.323H38.937v31.423A53.939,53.939,0,0,1,53.942,0ZM76.987,95.866a47.843,47.843,0,1,0-45.746.19V67.485h7.411V53.946H22.977l-10.9-10.9,5.06-5.06,7.981,7.838H45.922V66.914h15.96V46.25H82.261l8.123-8.123L95.8,43.115,85.326,53.59H69.436V66.915h7.553V95.867Zm-56.72-60.59,4.56-5.416L30.1,35.418H78.126l4.845-5.273,4.7,4.56L81.261,41.83H27.392l-7.125-6.555Z" transform="translate(0)"/><path class="b" d="M286.61,664.458h-1.56v-9.929h1.56v4.26h1.772v-4.26h1.59v9.929h-1.59v-4.252H286.61Zm9.215,0h-1.572l-.269-1.8h-1.912l-.269,1.8H290.37l1.583-9.929h2.286Zm-3.56-3.15h1.51l-.754-5.02Zm.6-8.917,1.026,1.662H292.71l-1.531-1.662h1.683Zm7.27,4.881v7.188h-1.407V654.53h1.962l1.6,5.947V654.53h1.393v9.929h-1.6Zm6.1,4.9c0,.657.269.983.81.983s.809-.326.809-.983v-5.357c0-.653-.269-.976-.809-.976s-.81.324-.81.976Zm-1.557-5.262q0-2.5,2.369-2.493t2.369,2.493v5.164q0,2.492-2.369,2.493t-2.369-2.493Zm3.087,8.289v1.447h-1.44V665.2Zm-2.79-11.148,1.314-1.662h1.5l1.317,1.662h-1.407l-.664-.824-.653.824h-1.4Zm5.44.478h1.56v9.929h-1.56Z" transform="translate(-244.242 -559.013)"/></g></svg>